<mxfile host="app.diagrams.net" modified="2020-08-01T13:44:12.929Z" agent="5.0 (Windows NT 10.0; Win64; x64) AppleWebKit/537.36 (KHTML, like Gecko) Chrome/84.0.4147.105 Safari/537.36" etag="S5ZNC13-ErY8wIqNsxT2" version="13.5.5" type="github">
  <diagram id="1QXgpBts3ycxD1bv0ex4" name="Page-1">
    <mxGraphModel dx="3685" dy="1089" grid="1" gridSize="10" guides="1" tooltips="1" connect="1" arrows="1" fold="1" page="1" pageScale="1" pageWidth="827" pageHeight="1169" math="0" shadow="0">
      <root>
        <mxCell id="0" />
        <mxCell id="1" parent="0" />
        <mxCell id="JD2AeKC1y0bq8nJ1Yv_q-1" value="&lt;font style=&quot;font-size: 24px&quot;&gt;w1=3&lt;/font&gt;" style="ellipse;whiteSpace=wrap;html=1;" vertex="1" parent="1">
          <mxGeometry x="-960" y="380" width="230" height="200" as="geometry" />
        </mxCell>
        <mxCell id="JD2AeKC1y0bq8nJ1Yv_q-3" value="&lt;span style=&quot;font-size: 24px&quot;&gt;w2=2&lt;/span&gt;" style="ellipse;whiteSpace=wrap;html=1;" vertex="1" parent="1">
          <mxGeometry x="-960" y="610" width="240" height="130" as="geometry" />
        </mxCell>
        <mxCell id="JD2AeKC1y0bq8nJ1Yv_q-4" value="&lt;font style=&quot;font-size: 18px&quot;&gt;a:1&lt;/font&gt;" style="ellipse;whiteSpace=wrap;html=1;" vertex="1" parent="1">
          <mxGeometry x="-930" y="410" width="60" height="60" as="geometry" />
        </mxCell>
        <mxCell id="JD2AeKC1y0bq8nJ1Yv_q-10" value="&lt;font style=&quot;font-size: 18px&quot;&gt;c:1&lt;/font&gt;" style="ellipse;whiteSpace=wrap;html=1;" vertex="1" parent="1">
          <mxGeometry x="-875" y="510" width="60" height="60" as="geometry" />
        </mxCell>
        <mxCell id="JD2AeKC1y0bq8nJ1Yv_q-11" value="&lt;font style=&quot;font-size: 18px&quot;&gt;b:1&lt;/font&gt;" style="ellipse;whiteSpace=wrap;html=1;" vertex="1" parent="1">
          <mxGeometry x="-830" y="410" width="60" height="60" as="geometry" />
        </mxCell>
        <mxCell id="JD2AeKC1y0bq8nJ1Yv_q-13" value="&lt;font style=&quot;font-size: 18px&quot;&gt;e:1&lt;/font&gt;" style="ellipse;whiteSpace=wrap;html=1;" vertex="1" parent="1">
          <mxGeometry x="-940" y="640" width="60" height="60" as="geometry" />
        </mxCell>
        <mxCell id="JD2AeKC1y0bq8nJ1Yv_q-14" value="&lt;font style=&quot;font-size: 18px&quot;&gt;f:1&lt;/font&gt;" style="ellipse;whiteSpace=wrap;html=1;" vertex="1" parent="1">
          <mxGeometry x="-790" y="640" width="60" height="60" as="geometry" />
        </mxCell>
        <mxCell id="JD2AeKC1y0bq8nJ1Yv_q-15" value="" style="endArrow=classic;html=1;exitX=1;exitY=0.5;exitDx=0;exitDy=0;" edge="1" parent="1" source="JD2AeKC1y0bq8nJ1Yv_q-1">
          <mxGeometry width="50" height="50" relative="1" as="geometry">
            <mxPoint x="-490" y="640" as="sourcePoint" />
            <mxPoint x="-460" y="480" as="targetPoint" />
          </mxGeometry>
        </mxCell>
        <mxCell id="JD2AeKC1y0bq8nJ1Yv_q-17" value="&lt;font style=&quot;font-size: 12px&quot;&gt;b:w1=3&lt;/font&gt;" style="ellipse;whiteSpace=wrap;html=1;strokeColor=#3333FF;" vertex="1" parent="1">
          <mxGeometry x="-700" y="420" width="60" height="60" as="geometry" />
        </mxCell>
        <mxCell id="JD2AeKC1y0bq8nJ1Yv_q-18" value="&lt;font style=&quot;font-size: 12px&quot;&gt;b:w1=1.2&lt;/font&gt;" style="ellipse;whiteSpace=wrap;html=1;strokeColor=#3333FF;" vertex="1" parent="1">
          <mxGeometry x="-570" y="420" width="60" height="60" as="geometry" />
        </mxCell>
        <mxCell id="JD2AeKC1y0bq8nJ1Yv_q-19" value="" style="endArrow=classic;html=1;exitX=1;exitY=0.5;exitDx=0;exitDy=0;entryX=0;entryY=0.5;entryDx=0;entryDy=0;" edge="1" parent="1" source="JD2AeKC1y0bq8nJ1Yv_q-17" target="JD2AeKC1y0bq8nJ1Yv_q-18">
          <mxGeometry width="50" height="50" relative="1" as="geometry">
            <mxPoint x="-490" y="640" as="sourcePoint" />
            <mxPoint x="-440" y="590" as="targetPoint" />
          </mxGeometry>
        </mxCell>
        <mxCell id="JD2AeKC1y0bq8nJ1Yv_q-20" value="&lt;font style=&quot;font-size: 18px&quot;&gt;&lt;b&gt;learn&lt;/b&gt;&lt;/font&gt;" style="text;html=1;strokeColor=none;fillColor=none;align=center;verticalAlign=middle;whiteSpace=wrap;rounded=0;" vertex="1" parent="1">
          <mxGeometry x="-670" y="410" width="130" height="40" as="geometry" />
        </mxCell>
        <mxCell id="JD2AeKC1y0bq8nJ1Yv_q-22" value="&lt;font style=&quot;font-size: 24px&quot;&gt;w1=1.2&lt;/font&gt;" style="ellipse;whiteSpace=wrap;html=1;" vertex="1" parent="1">
          <mxGeometry x="-460" y="423.75" width="150" height="112.5" as="geometry" />
        </mxCell>
        <mxCell id="JD2AeKC1y0bq8nJ1Yv_q-25" value="&lt;font style=&quot;font-size: 12px&quot;&gt;a:0.4&lt;/font&gt;" style="ellipse;whiteSpace=wrap;html=1;" vertex="1" parent="1">
          <mxGeometry x="-430" y="438.13" width="30" height="23.75" as="geometry" />
        </mxCell>
        <mxCell id="JD2AeKC1y0bq8nJ1Yv_q-26" value="&lt;font style=&quot;font-size: 12px&quot;&gt;b:0.4&lt;/font&gt;" style="ellipse;whiteSpace=wrap;html=1;" vertex="1" parent="1">
          <mxGeometry x="-370" y="438.13" width="30" height="23.75" as="geometry" />
        </mxCell>
        <mxCell id="JD2AeKC1y0bq8nJ1Yv_q-27" value="&lt;font style=&quot;font-size: 12px&quot;&gt;c:0.4&lt;/font&gt;" style="ellipse;whiteSpace=wrap;html=1;" vertex="1" parent="1">
          <mxGeometry x="-400" y="500" width="30" height="23.75" as="geometry" />
        </mxCell>
        <mxCell id="JD2AeKC1y0bq8nJ1Yv_q-28" value="&lt;font style=&quot;font-size: 12px&quot;&gt;f:w2=2&lt;/font&gt;" style="ellipse;whiteSpace=wrap;html=1;strokeColor=#3333FF;" vertex="1" parent="1">
          <mxGeometry x="-690" y="610" width="60" height="60" as="geometry" />
        </mxCell>
        <mxCell id="JD2AeKC1y0bq8nJ1Yv_q-29" value="&lt;font style=&quot;font-size: 18px&quot;&gt;&lt;b&gt;learn&lt;/b&gt;&lt;/font&gt;" style="text;html=1;strokeColor=none;fillColor=none;align=center;verticalAlign=middle;whiteSpace=wrap;rounded=0;" vertex="1" parent="1">
          <mxGeometry x="-660" y="600" width="130" height="40" as="geometry" />
        </mxCell>
        <mxCell id="JD2AeKC1y0bq8nJ1Yv_q-30" value="&lt;font style=&quot;font-size: 12px&quot;&gt;f:w2=4&lt;/font&gt;" style="ellipse;whiteSpace=wrap;html=1;strokeColor=#3333FF;" vertex="1" parent="1">
          <mxGeometry x="-560" y="610" width="60" height="60" as="geometry" />
        </mxCell>
        <mxCell id="JD2AeKC1y0bq8nJ1Yv_q-31" value="" style="endArrow=classic;html=1;exitX=1;exitY=0.5;exitDx=0;exitDy=0;" edge="1" parent="1">
          <mxGeometry width="50" height="50" relative="1" as="geometry">
            <mxPoint x="-719.9999999999995" y="670" as="sourcePoint" />
            <mxPoint x="-450" y="670" as="targetPoint" />
          </mxGeometry>
        </mxCell>
        <mxCell id="JD2AeKC1y0bq8nJ1Yv_q-33" value="" style="endArrow=classic;html=1;exitX=0.25;exitY=1;exitDx=0;exitDy=0;entryX=0.75;entryY=1;entryDx=0;entryDy=0;" edge="1" parent="1" source="JD2AeKC1y0bq8nJ1Yv_q-29" target="JD2AeKC1y0bq8nJ1Yv_q-29">
          <mxGeometry width="50" height="50" relative="1" as="geometry">
            <mxPoint x="-580" y="580" as="sourcePoint" />
            <mxPoint x="-530" y="530" as="targetPoint" />
          </mxGeometry>
        </mxCell>
        <mxCell id="JD2AeKC1y0bq8nJ1Yv_q-34" value="&lt;font style=&quot;font-size: 24px&quot;&gt;w2=4&lt;/font&gt;" style="ellipse;whiteSpace=wrap;html=1;" vertex="1" parent="1">
          <mxGeometry x="-450" y="550" width="280" height="240" as="geometry" />
        </mxCell>
        <mxCell id="JD2AeKC1y0bq8nJ1Yv_q-35" value="&lt;font style=&quot;font-size: 18px&quot;&gt;e:2&lt;/font&gt;" style="ellipse;whiteSpace=wrap;html=1;" vertex="1" parent="1">
          <mxGeometry x="-366" y="560" width="100" height="90" as="geometry" />
        </mxCell>
        <mxCell id="JD2AeKC1y0bq8nJ1Yv_q-36" value="&lt;font style=&quot;font-size: 18px&quot;&gt;f:2&lt;/font&gt;" style="ellipse;whiteSpace=wrap;html=1;" vertex="1" parent="1">
          <mxGeometry x="-360" y="690" width="100" height="90" as="geometry" />
        </mxCell>
        <mxCell id="JD2AeKC1y0bq8nJ1Yv_q-39" value="" style="endArrow=classic;html=1;exitX=1;exitY=0.5;exitDx=0;exitDy=0;" edge="1" parent="1" source="JD2AeKC1y0bq8nJ1Yv_q-22">
          <mxGeometry width="50" height="50" relative="1" as="geometry">
            <mxPoint x="-430" y="540" as="sourcePoint" />
            <mxPoint x="-120" y="500" as="targetPoint" />
          </mxGeometry>
        </mxCell>
        <mxCell id="JD2AeKC1y0bq8nJ1Yv_q-41" value="" style="endArrow=classic;html=1;exitX=1;exitY=0.5;exitDx=0;exitDy=0;entryX=-0.011;entryY=0.474;entryDx=0;entryDy=0;entryPerimeter=0;" edge="1" parent="1" source="JD2AeKC1y0bq8nJ1Yv_q-34" target="JD2AeKC1y0bq8nJ1Yv_q-42">
          <mxGeometry width="50" height="50" relative="1" as="geometry">
            <mxPoint x="-430" y="540" as="sourcePoint" />
            <mxPoint x="-120" y="520" as="targetPoint" />
          </mxGeometry>
        </mxCell>
        <mxCell id="JD2AeKC1y0bq8nJ1Yv_q-42" value="" style="ellipse;whiteSpace=wrap;html=1;aspect=fixed;strokeColor=#000066;" vertex="1" parent="1">
          <mxGeometry x="-120" y="350" width="320" height="320" as="geometry" />
        </mxCell>
        <mxCell id="JD2AeKC1y0bq8nJ1Yv_q-43" value="&lt;font style=&quot;font-size: 12px&quot;&gt;a:0.4&lt;/font&gt;" style="ellipse;whiteSpace=wrap;html=1;" vertex="1" parent="1">
          <mxGeometry x="-40" y="414.38" width="30" height="23.75" as="geometry" />
        </mxCell>
        <mxCell id="JD2AeKC1y0bq8nJ1Yv_q-44" value="&lt;font style=&quot;font-size: 12px&quot;&gt;b:0.4&lt;/font&gt;" style="ellipse;whiteSpace=wrap;html=1;" vertex="1" parent="1">
          <mxGeometry x="54" y="410" width="30" height="23.75" as="geometry" />
        </mxCell>
        <mxCell id="JD2AeKC1y0bq8nJ1Yv_q-45" value="&lt;font style=&quot;font-size: 12px&quot;&gt;c:0.4&lt;/font&gt;" style="ellipse;whiteSpace=wrap;html=1;" vertex="1" parent="1">
          <mxGeometry x="20" y="461.88" width="30" height="23.75" as="geometry" />
        </mxCell>
        <mxCell id="JD2AeKC1y0bq8nJ1Yv_q-46" value="&lt;font style=&quot;font-size: 18px&quot;&gt;e:2&lt;/font&gt;" style="ellipse;whiteSpace=wrap;html=1;" vertex="1" parent="1">
          <mxGeometry x="-80" y="520" width="100" height="90" as="geometry" />
        </mxCell>
        <mxCell id="JD2AeKC1y0bq8nJ1Yv_q-47" value="&lt;font style=&quot;font-size: 18px&quot;&gt;f:2&lt;/font&gt;" style="ellipse;whiteSpace=wrap;html=1;" vertex="1" parent="1">
          <mxGeometry x="50" y="536.25" width="100" height="90" as="geometry" />
        </mxCell>
        <mxCell id="JD2AeKC1y0bq8nJ1Yv_q-48" value="" style="endArrow=classic;html=1;exitX=1;exitY=0.5;exitDx=0;exitDy=0;" edge="1" parent="1" source="JD2AeKC1y0bq8nJ1Yv_q-42">
          <mxGeometry width="50" height="50" relative="1" as="geometry">
            <mxPoint x="-280" y="520" as="sourcePoint" />
            <mxPoint x="250" y="470" as="targetPoint" />
          </mxGeometry>
        </mxCell>
        <mxCell id="JD2AeKC1y0bq8nJ1Yv_q-49" value="" style="endArrow=classic;html=1;exitX=1;exitY=0.5;exitDx=0;exitDy=0;" edge="1" parent="1" source="JD2AeKC1y0bq8nJ1Yv_q-42">
          <mxGeometry width="50" height="50" relative="1" as="geometry">
            <mxPoint x="-280" y="520" as="sourcePoint" />
            <mxPoint x="250" y="680" as="targetPoint" />
          </mxGeometry>
        </mxCell>
        <mxCell id="JD2AeKC1y0bq8nJ1Yv_q-50" value="&lt;font style=&quot;font-size: 18px&quot;&gt;w1=2.4&lt;/font&gt;" style="ellipse;whiteSpace=wrap;html=1;strokeColor=#000066;" vertex="1" parent="1">
          <mxGeometry x="250" y="340" width="150" height="270" as="geometry" />
        </mxCell>
        <mxCell id="JD2AeKC1y0bq8nJ1Yv_q-51" value="&lt;font style=&quot;font-size: 12px&quot;&gt;a:0.4&lt;/font&gt;" style="ellipse;whiteSpace=wrap;html=1;" vertex="1" parent="1">
          <mxGeometry x="310" y="360" width="30" height="20" as="geometry" />
        </mxCell>
        <mxCell id="JD2AeKC1y0bq8nJ1Yv_q-52" value="&lt;font style=&quot;font-size: 18px&quot;&gt;e:2&lt;/font&gt;" style="ellipse;whiteSpace=wrap;html=1;" vertex="1" parent="1">
          <mxGeometry x="275" y="510" width="100" height="90" as="geometry" />
        </mxCell>
        <mxCell id="JD2AeKC1y0bq8nJ1Yv_q-54" style="edgeStyle=orthogonalEdgeStyle;rounded=0;orthogonalLoop=1;jettySize=auto;html=1;exitX=0.5;exitY=1;exitDx=0;exitDy=0;entryX=1;entryY=0.5;entryDx=0;entryDy=0;" edge="1" parent="1" source="JD2AeKC1y0bq8nJ1Yv_q-51" target="JD2AeKC1y0bq8nJ1Yv_q-51">
          <mxGeometry relative="1" as="geometry" />
        </mxCell>
        <mxCell id="JD2AeKC1y0bq8nJ1Yv_q-59" value="&lt;font style=&quot;font-size: 24px&quot;&gt;w2=2.8&lt;/font&gt;" style="ellipse;whiteSpace=wrap;html=1;strokeColor=#000066;" vertex="1" parent="1">
          <mxGeometry x="110" y="680" width="280" height="240" as="geometry" />
        </mxCell>
        <mxCell id="JD2AeKC1y0bq8nJ1Yv_q-60" value="&lt;font style=&quot;font-size: 18px&quot;&gt;f:2&lt;/font&gt;" style="ellipse;whiteSpace=wrap;html=1;" vertex="1" parent="1">
          <mxGeometry x="190" y="690" width="100" height="90" as="geometry" />
        </mxCell>
        <mxCell id="JD2AeKC1y0bq8nJ1Yv_q-61" value="&lt;font style=&quot;font-size: 12px&quot;&gt;b:0.4&lt;/font&gt;" style="ellipse;whiteSpace=wrap;html=1;" vertex="1" parent="1">
          <mxGeometry x="170" y="830" width="30" height="23.75" as="geometry" />
        </mxCell>
        <mxCell id="JD2AeKC1y0bq8nJ1Yv_q-62" value="&lt;font style=&quot;font-size: 12px&quot;&gt;c:0.4&lt;/font&gt;" style="ellipse;whiteSpace=wrap;html=1;" vertex="1" parent="1">
          <mxGeometry x="300" y="830" width="30" height="23.75" as="geometry" />
        </mxCell>
        <mxCell id="JD2AeKC1y0bq8nJ1Yv_q-64" value="" style="endArrow=classic;html=1;exitX=1;exitY=0.5;exitDx=0;exitDy=0;" edge="1" parent="1" source="JD2AeKC1y0bq8nJ1Yv_q-50">
          <mxGeometry width="50" height="50" relative="1" as="geometry">
            <mxPoint x="270" y="440" as="sourcePoint" />
            <mxPoint x="460" y="475" as="targetPoint" />
          </mxGeometry>
        </mxCell>
        <mxCell id="JD2AeKC1y0bq8nJ1Yv_q-65" value="" style="endArrow=classic;html=1;entryX=0;entryY=0.5;entryDx=0;entryDy=0;exitX=1;exitY=0.5;exitDx=0;exitDy=0;" edge="1" parent="1" source="JD2AeKC1y0bq8nJ1Yv_q-59" target="JD2AeKC1y0bq8nJ1Yv_q-66">
          <mxGeometry width="50" height="50" relative="1" as="geometry">
            <mxPoint x="420" y="800" as="sourcePoint" />
            <mxPoint x="390" y="800" as="targetPoint" />
          </mxGeometry>
        </mxCell>
        <mxCell id="JD2AeKC1y0bq8nJ1Yv_q-66" value="&lt;font style=&quot;font-size: 24px&quot;&gt;w2=2.8&lt;/font&gt;" style="ellipse;whiteSpace=wrap;html=1;strokeColor=#1A1A1A;" vertex="1" parent="1">
          <mxGeometry x="490" y="680" width="280" height="240" as="geometry" />
        </mxCell>
        <mxCell id="JD2AeKC1y0bq8nJ1Yv_q-67" value="&lt;font style=&quot;font-size: 18px&quot;&gt;w1=2.4&lt;/font&gt;" style="ellipse;whiteSpace=wrap;html=1;strokeColor=#1A1A1A;" vertex="1" parent="1">
          <mxGeometry x="460" y="338.76" width="150" height="270" as="geometry" />
        </mxCell>
        <mxCell id="JD2AeKC1y0bq8nJ1Yv_q-68" value="&lt;font style=&quot;font-size: 18px&quot;&gt;a:1.2&lt;/font&gt;" style="ellipse;whiteSpace=wrap;html=1;" vertex="1" parent="1">
          <mxGeometry x="495" y="370" width="80" height="80" as="geometry" />
        </mxCell>
        <mxCell id="JD2AeKC1y0bq8nJ1Yv_q-69" value="&lt;font style=&quot;font-size: 18px&quot;&gt;e:1.2&lt;/font&gt;" style="ellipse;whiteSpace=wrap;html=1;" vertex="1" parent="1">
          <mxGeometry x="495" y="490" width="80" height="80" as="geometry" />
        </mxCell>
        <mxCell id="JD2AeKC1y0bq8nJ1Yv_q-70" value="&lt;font style=&quot;font-size: 18px&quot;&gt;f:0.93&lt;/font&gt;" style="ellipse;whiteSpace=wrap;html=1;" vertex="1" parent="1">
          <mxGeometry x="590" y="695" width="80" height="65" as="geometry" />
        </mxCell>
        <mxCell id="JD2AeKC1y0bq8nJ1Yv_q-71" value="&lt;font style=&quot;font-size: 18px&quot;&gt;b:0.93&lt;/font&gt;" style="ellipse;whiteSpace=wrap;html=1;" vertex="1" parent="1">
          <mxGeometry x="530" y="809.38" width="80" height="65" as="geometry" />
        </mxCell>
        <mxCell id="JD2AeKC1y0bq8nJ1Yv_q-72" value="&lt;font style=&quot;font-size: 18px&quot;&gt;c:0.93&lt;/font&gt;" style="ellipse;whiteSpace=wrap;html=1;" vertex="1" parent="1">
          <mxGeometry x="670" y="809.38" width="80" height="65" as="geometry" />
        </mxCell>
      </root>
    </mxGraphModel>
  </diagram>
</mxfile>
